<svg width="5" height="25" viewBox="0 0 5 25" fill="none" xmlns="http://www.w3.org/2000/svg">
<path d="M2.5226 2.60221V2.61638M2.5226 12.5189V12.533M2.5226 22.4355V22.4497M2.5226 4.01888C2.17214 4.01888 1.83603 3.86962 1.58821 3.60395C1.34039 3.33827 1.20117 2.97794 1.20117 2.60221C1.20117 2.22649 1.34039 1.86616 1.58821 1.60048C1.83603 1.3348 2.17214 1.18555 2.5226 1.18555C2.87306 1.18555 3.20917 1.3348 3.45699 1.60048C3.70481 1.86616 3.84403 2.22649 3.84403 2.60221C3.84403 2.97794 3.70481 3.33827 3.45699 3.60395C3.20917 3.86962 2.87306 4.01888 2.5226 4.01888ZM2.5226 13.9355C2.17214 13.9355 1.83603 13.7863 1.58821 13.5206C1.34039 13.2549 1.20117 12.8946 1.20117 12.5189C1.20117 12.1432 1.34039 11.7828 1.58821 11.5171C1.83603 11.2515 2.17214 11.1022 2.5226 11.1022C2.87306 11.1022 3.20917 11.2515 3.45699 11.5171C3.70481 11.7828 3.84403 12.1432 3.84403 12.5189C3.84403 12.8946 3.70481 13.2549 3.45699 13.5206C3.20917 13.7863 2.87306 13.9355 2.5226 13.9355ZM2.5226 23.8522C2.17214 23.8522 1.83603 23.703 1.58821 23.4373C1.34039 23.1716 1.20117 22.8113 1.20117 22.4355C1.20117 22.0598 1.34039 21.6995 1.58821 21.4338C1.83603 21.1681 2.17214 21.0189 2.5226 21.0189C2.87306 21.0189 3.20917 21.1681 3.45699 21.4338C3.70481 21.6995 3.84403 22.0598 3.84403 22.4355C3.84403 22.8113 3.70481 23.1716 3.45699 23.4373C3.20917 23.703 2.87306 23.8522 2.5226 23.8522Z" stroke="#1F0A11" stroke-width="2" stroke-linecap="round" stroke-linejoin="round"/>
</svg>
